<?xml version="1.0" encoding="UTF-8"?>
<svg version="1.1" viewBox="0 0 500.36 744.09" xmlns="http://www.w3.org/2000/svg">
<g transform="translate(-276 -308.27)" fill="#fff">
<path d="m350.58 393.72 14.793 213.36h325.47l14.793-211.71c-34.846 11.573-79.614-27.739-119.82-26.286-42.986 1.5529-88.868 25.742-130.19 32.887-37.731 6.5246-71.164-3.6367-105.04-8.2551z"/>
<path d="m365.38 624.83v10.375h325.47v-10.375z"/>
<path d="m365.38 638.14v48.844l89.831 48.112c40.208 15.177 35.053 30.224 37.101 70.234l7.6206 148.81c2.9744 57.568 58.672 52.971 57.641-0.10944l6.8523-151.64c-1.8586-40.012 0.22442-46.35 33.146-63.983l93.276-49.957v-50.312z"/>
<path transform="matrix(.58825 0 0 .58825 491.83 459.15)" d="m84.259 378.99a25.148 25.148 0 1 1 0.0067-0.0983"/>
</g>
</svg>
