<?xml version="1.0" standalone="no"?>
<svg version="1.0" xmlns="http://www.w3.org/2000/svg"
 width="128.000000pt" height="128.000000pt" viewBox="0 0 128.000000 128.000000"
 preserveAspectRatio="xMidYMid meet">

<g transform="translate(0.000000,128.000000) scale(0.100000,-0.100000)"
fill="#FFFFFF" stroke="none">
<path d="M605 1080 l-29 -30 64 0 64 0 -29 30 c-16 17 -32 30 -35 30 -3 0 -19
-13 -35 -30z"/>
<path d="M330 1017 c-30 -16 -51 -37 -67 -67 -22 -42 -23 -51 -23 -310 0 -259
1 -268 23 -310 16 -30 37 -51 67 -67 42 -22 51 -23 310 -23 259 0 268 1 310
23 30 16 51 37 67 67 22 42 23 51 23 310 0 259 -1 268 -23 310 -16 30 -37 51
-67 67 -42 22 -51 23 -310 23 -259 0 -268 -1 -310 -23z m282 -324 l28 -27 28
27 c51 49 74 26 25 -25 l-27 -28 27 -28 c49 -51 26 -74 -25 -25 l-28 27 -28
-27 c-15 -15 -33 -27 -40 -27 -20 0 -14 22 15 52 l27 28 -27 28 c-49 51 -26
74 25 25z"/>
<path d="M195 670 l-29 -30 32 -33 32 -32 0 63 c0 34 -1 62 -3 62 -2 0 -16
-14 -32 -30z"/>
<path d="M1050 640 l0 -65 32 33 33 32 -33 32 -32 33 0 -65z"/>
<path d="M608 198 l32 -33 32 33 33 32 -65 0 -65 0 33 -32z"/>
</g>
</svg>
